<svg viewBox="0 0 48 32" fill="none" xmlns="http://www.w3.org/2000/svg">
<g clip-path="url(#clip0_377_43)">
<path fill-rule="evenodd" clip-rule="evenodd" d="M5 0C2.23858 0 0 2.23858 0 5V27C0 29.7614 2.23858 32 5 32H43C45.7614 32 48 29.7614 48 27V5C48 2.23858 45.7614 0 43 0H5ZM7.71902 21H9.68777L10.5298 18.4893H14.3577L15.2013 21H17.17L13.5805 10.8182H11.3035L7.71902 21ZM13.8599 17.0078L12.4818 12.9062H12.4023L11.0267 17.0078H13.8599ZM19.8547 23.7592C20.3187 23.9349 20.8738 24.0227 21.5202 24.0227C22.2062 24.0227 22.8194 23.9167 23.3596 23.7045C23.8999 23.4924 24.3258 23.1726 24.6373 22.745C24.9489 22.3175 25.1047 21.7772 25.1047 21.1243V13.3636H23.3298V14.6264H23.2304C23.1409 14.4408 23.01 14.2436 22.8376 14.0348C22.6653 13.8227 22.4333 13.642 22.1416 13.4929C21.8532 13.3404 21.4854 13.2642 21.0379 13.2642C20.4513 13.2642 19.9193 13.415 19.442 13.7166C18.9648 14.0149 18.5853 14.4541 18.3035 15.0341C18.0251 15.6108 17.8859 16.3184 17.8859 17.157C17.8859 17.9889 18.0251 18.6816 18.3035 19.2351C18.5853 19.7853 18.9631 20.1996 19.4371 20.478C19.9143 20.7531 20.4463 20.8906 21.0329 20.8906C21.4704 20.8906 21.8334 20.8243 22.1217 20.6918C22.4134 20.5592 22.647 20.3951 22.8227 20.1996C23.0017 20.004 23.1376 19.8134 23.2304 19.6278H23.3199V21.0746C23.3199 21.638 23.1525 22.0424 22.8177 22.2876C22.483 22.5362 22.0604 22.6605 21.55 22.6605C21.1887 22.6605 20.8888 22.6108 20.6501 22.5114C20.4148 22.4152 20.2275 22.2926 20.0883 22.1435C19.9491 21.9976 19.8431 21.8501 19.7702 21.701L18.1494 22.0938C18.2588 22.4484 18.4543 22.7715 18.7361 23.0632C19.0178 23.3549 19.3907 23.5869 19.8547 23.7592ZM22.5095 19.2003C22.241 19.3859 21.9162 19.4787 21.5351 19.4787C21.1407 19.4787 20.8076 19.3826 20.5358 19.1903C20.2673 18.9948 20.0635 18.723 19.9243 18.375C19.7884 18.0237 19.7204 17.6143 19.7204 17.147C19.7204 16.6863 19.7884 16.2753 19.9243 15.9141C20.0602 15.5495 20.2623 15.2628 20.5308 15.054C20.7993 14.8452 21.134 14.7408 21.5351 14.7408C21.9229 14.7408 22.2493 14.8419 22.5145 15.044C22.7829 15.2429 22.9851 15.523 23.121 15.8842C23.2602 16.2455 23.3298 16.6664 23.3298 17.147C23.3298 17.6342 23.2602 18.0518 23.121 18.3999C22.9818 18.7479 22.778 19.0147 22.5095 19.2003ZM26.9491 13.3636V21H28.7488V13.3636H26.9491ZM27.1182 11.9964C27.3237 12.1854 27.5689 12.2798 27.854 12.2798C28.1423 12.2798 28.3876 12.1854 28.5898 11.9964C28.7952 11.8042 28.898 11.5739 28.898 11.3054C28.898 11.0336 28.7952 10.8033 28.5898 10.6143C28.3876 10.4221 28.1423 10.326 27.854 10.326C27.5689 10.326 27.3237 10.4221 27.1182 10.6143C26.9127 10.8033 26.8099 11.0336 26.8099 11.3054C26.8099 11.5739 26.9127 11.8042 27.1182 11.9964ZM32.3992 21V10.8182H30.5995V21H32.3992ZM35.6469 20.6719C36.2037 20.9901 36.865 21.1491 37.6306 21.1491C38.2239 21.1491 38.7509 21.0597 39.2116 20.8807C39.6723 20.6984 40.0501 20.4432 40.3451 20.1151C40.6434 19.7836 40.8456 19.3958 40.9516 18.9517L39.2712 18.7628C39.1917 18.9782 39.074 19.1589 38.9182 19.3047C38.7625 19.4505 38.5785 19.5616 38.3664 19.6378C38.1543 19.7107 37.9173 19.7472 37.6555 19.7472C37.2644 19.7472 36.923 19.6643 36.6313 19.4986C36.3396 19.3295 36.1126 19.0876 35.9502 18.7727C35.7933 18.4653 35.7122 18.099 35.7069 17.674H41.0262V17.1222C41.0262 16.4527 40.9334 15.8759 40.7478 15.392C40.5622 14.9048 40.307 14.5038 39.9822 14.1889C39.6607 13.8741 39.2894 13.642 38.8685 13.4929C38.4509 13.3404 38.0068 13.2642 37.5361 13.2642C36.807 13.2642 36.1723 13.4316 35.632 13.7663C35.0918 14.0978 34.6708 14.5618 34.3692 15.1584C34.0709 15.7517 33.9218 16.4411 33.9218 17.2266C33.9218 18.0253 34.0709 18.7197 34.3692 19.3097C34.6675 19.8963 35.0934 20.3504 35.6469 20.6719ZM35.7103 16.4609C35.7276 16.1618 35.8042 15.885 35.9403 15.6307C36.096 15.3423 36.3131 15.1103 36.5915 14.9347C36.8699 14.7557 37.1931 14.6662 37.561 14.6662C37.9057 14.6662 38.2073 14.7441 38.4658 14.8999C38.7277 15.0556 38.9315 15.2694 39.0773 15.5412C39.2232 15.8097 39.2977 16.1162 39.301 16.4609H35.7103Z" fill="#DCD7BA"/>
</g>
<defs>
<clipPath id="clip0_377_43">
<rect width="48" height="32" fill="white"/>
</clipPath>
</defs>
</svg>
