<svg viewBox="0 0 32 32" fill="none" xmlns="http://www.w3.org/2000/svg">
<path d="M30.1936 0.03125L27.5317 28.8634L15.9989 31.9686L4.466 28.8634L1.80469 0.03125H30.1936ZM24.8298 5.89381H15.9886H6.99075L7.42106 9.37556H15.9886H16.4698L15.9886 9.57587L7.73419 13.0137L8.00794 16.4171L15.9886 16.4429L20.2659 16.4565L19.9921 20.9944L15.9885 22.1216V22.118L15.9557 22.1271L12.0892 21.1511L11.8546 18.3342H11.8417H8.25538H8.24275L8.71219 23.7721L15.9886 25.9239V25.9201L16.0017 25.9239L23.2392 23.8113L24.178 13.0137H15.9886H15.9684L15.9886 13.005L24.478 9.37556L24.8298 5.89381Z" fill="#DCD7BA"/>
</svg>
