<svg viewBox="0 0 32 32" fill="none" xmlns="http://www.w3.org/2000/svg">
<path d="M15.3036 0H10.434C7.74463 0 5.56445 2.18017 5.56445 4.86956C5.56445 7.55896 7.74463 9.73913 10.434 9.73913H15.3036V0Z" fill="#DCD7BA"/>
<path d="M16.6953 0H21.5649C24.2543 0 26.4344 2.18017 26.4344 4.86956C26.4344 7.55896 24.2543 9.73913 21.5649 9.73913H16.6953V0Z" fill="#DCD7BA"/>
<path d="M15.3036 11.1304H10.434C7.74463 11.1304 5.56445 13.3105 5.56445 15.9999C5.56445 18.6893 7.74463 20.8695 10.434 20.8695H15.3036V11.1304Z" fill="#DCD7BA"/>
<path d="M15.3036 22.2607H10.434C7.74463 22.2607 5.56445 24.4409 5.56445 27.1303C5.56445 29.8197 7.74463 31.9999 10.434 31.9999C13.1234 31.9999 15.3036 29.8197 15.3036 27.1303V22.2607Z" fill="#DCD7BA"/>
<path d="M21.5649 20.8695C24.2543 20.8695 26.4344 18.6893 26.4344 15.9999C26.4344 13.3105 24.2543 11.1304 21.5649 11.1304C18.8755 11.1304 16.6953 13.3105 16.6953 15.9999C16.6953 18.6893 18.8755 20.8695 21.5649 20.8695Z" fill="#DCD7BA"/>
</svg>
