<svg viewBox="0 0 32 32" fill="none" xmlns="http://www.w3.org/2000/svg">
<g clip-path="url(#clip0_377_54)">
<path fill-rule="evenodd" clip-rule="evenodd" d="M5 0C2.23858 0 0 2.23858 0 5V27C0 29.7614 2.23858 32 5 32H27C29.7614 32 32 29.7614 32 27V5C32 2.23858 29.7614 0 27 0H5ZM14.1278 10.3636H11.0142V18.3409C11.0104 18.6402 10.9669 18.892 10.8835 19.0966C10.8002 19.2973 10.6771 19.4489 10.5142 19.5511C10.3551 19.6534 10.1581 19.7045 9.9233 19.7045C9.69223 19.7045 9.49527 19.6553 9.33239 19.5568C9.1733 19.4545 9.0483 19.303 8.95739 19.1023C8.87027 18.9015 8.82102 18.6553 8.80966 18.3636H5.65057C5.64678 19.2576 5.8286 19.9848 6.19602 20.5455C6.56345 21.1023 7.05587 21.5114 7.6733 21.7727C8.29072 22.0303 8.97254 22.1591 9.71875 22.1591C10.5786 22.1591 11.3381 22 11.9972 21.6818C12.66 21.3598 13.179 20.9129 13.554 20.3409C13.9328 19.7652 14.1241 19.0985 14.1278 18.3409V10.3636ZM21.4716 13.1136C21.7254 13.3258 21.8674 13.6212 21.8977 14H24.9205C24.9167 13.2386 24.7273 12.5739 24.3523 12.0057C23.9811 11.4337 23.4527 10.9905 22.767 10.6761C22.0814 10.3617 21.2689 10.2045 20.3295 10.2045C19.4091 10.2045 18.5928 10.3598 17.8807 10.6705C17.1723 10.9811 16.6174 11.4148 16.2159 11.9716C15.8182 12.5246 15.6212 13.1705 15.625 13.9091C15.6212 14.8182 15.9148 15.536 16.5057 16.0625C17.1004 16.5852 17.9129 16.9583 18.9432 17.1818L20.1023 17.4318C20.5341 17.5265 20.8769 17.6288 21.1307 17.7386C21.3845 17.8447 21.5663 17.9659 21.6761 18.1023C21.7898 18.2348 21.8485 18.3902 21.8523 18.5682C21.8485 18.7576 21.7879 18.9261 21.6705 19.0739C21.553 19.2216 21.3807 19.3371 21.1534 19.4205C20.9261 19.5038 20.6439 19.5455 20.3068 19.5455C19.9053 19.5455 19.5587 19.483 19.267 19.358C18.9792 19.233 18.7557 19.0492 18.5966 18.8068C18.4375 18.5644 18.3485 18.2652 18.3295 17.9091H15.3295C15.3333 18.8826 15.5417 19.6818 15.9545 20.3068C16.3712 20.928 16.9545 21.3883 17.7045 21.6875C18.4583 21.9867 19.3409 22.1364 20.3523 22.1364C21.3371 22.1364 22.1799 21.9981 22.8807 21.7216C23.5852 21.4451 24.1269 21.0417 24.5057 20.5114C24.8845 19.9811 25.0758 19.3333 25.0795 18.5682C25.0758 18.125 25.0038 17.7159 24.8636 17.3409C24.7273 16.9659 24.5133 16.6288 24.2216 16.3295C23.9299 16.0265 23.5549 15.7633 23.0966 15.5398C22.6383 15.3163 22.0871 15.1364 21.4432 15L20.4886 14.7955C20.2121 14.7386 19.9735 14.6742 19.7727 14.6023C19.572 14.5303 19.4072 14.4508 19.2784 14.3636C19.1496 14.2727 19.0549 14.1723 18.9943 14.0625C18.9375 13.9489 18.9129 13.822 18.9205 13.6818C18.9242 13.5114 18.9754 13.3598 19.0739 13.2273C19.1723 13.0947 19.3239 12.9905 19.5284 12.9148C19.7367 12.8352 20.0038 12.7955 20.3295 12.7955C20.8409 12.7955 21.2216 12.9015 21.4716 13.1136Z" fill="#DCD7BA"/>
</g>
<defs>
<clipPath id="clip0_377_54">
<rect width="32" height="32" fill="white"/>
</clipPath>
</defs>
</svg>
