<svg viewBox="0 0 32 32" fill="none" xmlns="http://www.w3.org/2000/svg">
<g clip-path="url(#clip0_376_33)">
<path d="M26.6458 0.03125H5.35419C2.42656 0.03125 0.03125 2.42656 0.03125 5.35419V26.6459C0.03125 29.5735 2.42656 31.9688 5.35419 31.9688H26.6459C29.5735 31.9688 31.9688 29.5735 31.9688 26.6459V5.35419C31.9688 2.42656 29.5734 0.03125 26.6458 0.03125ZM15.3331 16.2827C14.2246 17.3912 12.4824 17.9118 10.5141 17.9118C9.99375 17.9118 9.51869 17.889 9.15662 17.8211V23.5677H6.39669V8.52269C7.39213 8.34175 8.77225 8.20588 10.6498 8.20588C12.6862 8.20588 14.1794 8.63575 15.1523 9.45031C16.0573 10.197 16.6454 11.396 16.6454 12.8213C16.6453 14.2693 16.1929 15.4682 15.3331 16.2827ZM21.1238 23.7941C19.7889 23.7941 18.5899 23.4773 17.7754 23.0247L18.3184 21.0112C18.9518 21.3959 20.151 21.8032 21.1464 21.8032C22.368 21.8032 22.9112 21.3054 22.9112 20.5814C22.9112 19.8349 22.4587 19.4502 21.1012 18.9751C18.9517 18.2284 18.0471 17.0521 18.0696 15.7624C18.0696 13.8168 19.6759 12.301 22.2324 12.301C23.4542 12.301 24.5175 12.6178 25.1508 12.957L24.6079 14.9253C24.1328 14.6539 23.2503 14.2919 22.2776 14.2919C21.2821 14.2919 20.7391 14.767 20.7391 15.4456C20.7391 16.1471 21.2595 16.4866 22.6623 16.9842C24.6531 17.7081 25.5807 18.7262 25.6034 20.3553C25.6033 22.3462 24.0424 23.7941 21.1238 23.7941ZM13.8625 12.9344C13.8625 14.7217 12.5954 15.7398 10.5141 15.7398C9.94856 15.7398 9.49606 15.7172 9.15662 15.6267V10.4684C9.45087 10.4006 9.99381 10.3327 10.7631 10.3327C12.6862 10.3327 13.8625 11.2377 13.8625 12.9344Z" fill="#DCD7BA"/>
</g>
<defs>
<clipPath id="clip0_376_33">
<rect width="32" height="32" fill="white"/>
</clipPath>
</defs>
</svg>
