<svg viewBox="0 0 32 32" fill="none" xmlns="http://www.w3.org/2000/svg">
<g clip-path="url(#clip0_373_2)">
<path fill-rule="evenodd" clip-rule="evenodd" d="M20.3904 29.5328C19.6192 29.5328 18.9952 28.9057 18.9952 28.1305C18.9952 27.3552 19.6192 26.7297 20.3904 26.7297C21.1616 26.7297 21.7856 27.3552 21.7856 28.1305C21.7856 28.9057 21.1616 29.5328 20.3904 29.5328ZM16.1152 32C24.24 32 23.7328 28.4586 23.7328 28.4586L23.7232 24.7898H15.9712V23.6883H26.8016C26.8016 23.6883 32 24.2818 32 16.0422C32 7.80254 27.464 8.09297 27.464 8.09297H24.7552V11.918C24.7552 11.918 24.9008 16.4773 20.2912 16.4773H12.6016C12.6016 16.4773 8.28159 16.4088 8.28159 20.6758V27.7297C8.28159 27.7297 7.62559 32 16.1152 32ZM11.6112 2.46719C12.3824 2.46719 13.0048 3.0943 13.0048 3.86953C13.0048 4.64476 12.3824 5.27031 11.6112 5.27031C10.84 5.27031 10.216 4.64476 10.216 3.86953C10.216 3.0943 10.84 2.46719 11.6112 2.46719ZM15.8848 0C7.76161 0 8.2688 3.54141 8.2688 3.54141L8.27842 7.21016H16.0304V8.31172H5.19839C5.19839 8.31172 0 7.71818 0 15.9578C0 24.1975 4.5376 23.907 4.5376 23.907H7.24482V20.082C7.24482 20.082 7.0992 15.5227 11.7104 15.5227H19.3984C19.3984 15.5227 23.7184 15.5912 23.7184 11.3242V4.27031C23.7184 4.27031 24.3744 0 15.8848 0Z" fill="#DCD7BA"/>
</g>
</svg>
