<svg viewBox="0 0 32 32" fill="none" xmlns="http://www.w3.org/2000/svg">
<g clip-path="url(#clip0_373_23)">
<path d="M16.7766 4.65175C18.8547 3.06176 21.305 2.12731 23.3339 3.29872C25.363 4.47014 25.7789 7.05936 25.4409 9.65411C25.3991 9.97528 25.345 10.3053 25.2789 10.6435C25.6049 10.7553 25.9178 10.8735 26.2169 10.9979C28.6329 12.0026 30.6673 13.6574 30.6673 16.0002C30.6673 18.3431 28.6329 19.9978 26.2169 21.0026C25.9178 21.127 25.6049 21.2452 25.2789 21.357C25.345 21.6952 25.3991 22.0252 25.4409 22.3464C25.7789 24.9412 25.363 27.5304 23.3339 28.7019C21.305 29.8732 18.8547 28.9388 16.7766 27.3488C16.5194 27.152 16.2606 26.9402 16.0009 26.7138C15.7409 26.9403 15.4821 27.1522 15.2247 27.3491C13.1465 28.9391 10.6963 29.8735 8.66732 28.7022C6.63837 27.5307 6.22249 24.9415 6.56038 22.3467C6.60222 22.0255 6.6563 21.6954 6.72256 21.357C6.39646 21.2452 6.08357 21.127 5.78445 21.0026C3.36838 19.9978 1.33398 18.3431 1.33398 16.0002C1.33398 13.6574 3.36838 12.0026 5.78445 10.9979C6.08357 10.8735 6.39645 10.7553 6.72253 10.6435C6.65628 10.3052 6.60221 9.9751 6.56038 9.65384C6.22249 7.05911 6.63837 4.46988 8.66732 3.29846C10.6963 2.12704 13.1465 3.06151 15.2247 4.6515C15.4821 4.84838 15.7409 5.06028 16.0009 5.28683C16.2606 5.06038 16.5194 4.84856 16.7766 4.65175ZM9.30544 22.0495C9.2653 22.2695 9.23176 22.4835 9.20473 22.6911C8.89348 25.0812 9.47872 26.0914 10.0007 26.3927C10.5226 26.694 11.69 26.6959 13.6043 25.2312C13.7706 25.104 13.9391 24.968 14.1095 24.8232C13.4874 24.1215 12.8667 23.3418 12.2545 22.4888C11.2098 22.3851 10.2242 22.2374 9.30544 22.0495ZM22.6959 22.0495C21.7771 22.2374 20.7917 22.3851 19.747 22.4888C19.1349 23.3416 18.5141 24.1214 17.8919 24.8232C18.0623 24.9679 18.2307 25.1038 18.397 25.231C20.3113 26.6956 21.4787 26.6938 22.0006 26.3924C22.5226 26.0911 23.1078 25.081 22.7966 22.6908C22.7695 22.4832 22.7361 22.2694 22.6959 22.0495ZM16.0006 12.0002C15.2114 12.0002 14.4541 12.0236 13.7306 12.0681C13.3302 12.6726 12.9312 13.3168 12.5366 14.0004C12.142 14.6839 11.7836 15.3515 11.4603 16.0003C11.7836 16.6491 12.142 17.3167 12.5366 18.0002C12.9312 18.6838 13.3302 19.3279 13.7305 19.9323C14.4541 19.9768 15.2114 20.0002 16.0006 20.0002C16.7899 20.0002 17.5474 19.9768 18.271 19.9323C18.6713 19.328 19.0702 18.6839 19.4647 18.0004C19.8594 17.3168 20.2178 16.6492 20.5411 16.0003C20.2178 15.3514 19.8594 14.6838 19.4647 14.0002C19.0702 13.3167 18.6711 12.6725 18.2709 12.0681C17.5473 12.0236 16.7899 12.0002 16.0006 12.0002ZM7.41422 13.2266C7.20369 13.3018 7.00169 13.3798 6.8084 13.4602C4.58284 14.3856 4.00065 15.3975 4.00065 16.0002C4.00065 16.603 4.58284 17.6148 6.8084 18.5403C7.0017 18.6207 7.20372 18.6987 7.41428 18.7739C7.71093 17.8842 8.07582 16.9568 8.5083 16.0003C8.0758 15.0436 7.71089 14.1163 7.41422 13.2266ZM24.5871 13.2266C24.2905 14.1163 23.9257 15.0436 23.4931 16.0003C23.9255 16.9568 24.2905 17.8842 24.5871 18.7739C24.7977 18.6986 24.9997 18.6207 25.1929 18.5403C27.4185 17.6148 28.0006 16.603 28.0006 16.0002C28.0006 15.3975 27.4185 14.3856 25.1929 13.4602C24.9997 13.3798 24.7977 13.3018 24.5871 13.2266ZM16.0005 14.0003C17.1051 14.0003 18.0005 14.8958 18.0005 16.0003C18.0005 17.105 17.1051 18.0003 16.0005 18.0003C14.8959 18.0003 14.0005 17.105 14.0005 16.0003C14.0005 14.8958 14.8959 14.0003 16.0005 14.0003ZM10.0007 5.60787C9.47872 5.9092 8.89348 6.91934 9.20473 9.3095C9.23176 9.51708 9.26529 9.731 9.30541 9.95095C10.2243 9.76302 11.2099 9.61532 12.2546 9.51158C12.8668 8.65878 13.4875 7.87911 14.1097 7.17739C13.9391 7.03263 13.7706 6.89662 13.6043 6.76939C11.69 5.30475 10.5226 5.30652 10.0007 5.60787ZM22.0006 5.60812C21.4787 5.30678 20.3113 5.30502 18.397 6.76964C18.2307 6.8968 18.0623 7.03275 17.8919 7.17743C18.5141 7.87915 19.1347 8.6588 19.7469 9.5116C20.7915 9.61535 21.7771 9.76304 22.6959 9.95096C22.7361 9.7311 22.7695 9.51727 22.7966 9.30976C23.1078 6.91959 22.5226 5.90947 22.0006 5.60812Z" fill="#DCD7BA"/>
</g>
<defs>
<clipPath id="clip0_373_23">
<rect width="32" height="32" fill="white"/>
</clipPath>
</defs>
</svg>
