<svg viewBox="0 0 32 32" fill="none" xmlns="http://www.w3.org/2000/svg">
<g clip-path="url(#clip0_377_50)">
<path fill-rule="evenodd" clip-rule="evenodd" d="M5 0C2.23858 0 0 2.23858 0 5V27C0 29.7614 2.23858 32 5 32H27C29.7614 32 32 29.7614 32 27V5C32 2.23858 29.7614 0 27 0H5ZM8.44354 14.3352C8.63388 14.4943 8.74041 14.7159 8.76314 15H11.0302C11.0273 14.429 10.8853 13.9304 10.604 13.5043C10.3256 13.0753 9.92933 12.7429 9.41513 12.5071C8.90092 12.2713 8.29155 12.1534 7.587 12.1534C6.89666 12.1534 6.28445 12.2699 5.75036 12.5028C5.21911 12.7358 4.80291 13.0611 4.50178 13.4787C4.20348 13.8935 4.05575 14.3778 4.05859 14.9318C4.05575 15.6136 4.27592 16.152 4.71911 16.5469C5.16513 16.9389 5.7745 17.2188 6.54723 17.3864L7.41655 17.5739C7.74041 17.6449 7.99751 17.7216 8.18785 17.804C8.3782 17.8835 8.51456 17.9744 8.59695 18.0767C8.68217 18.1761 8.72621 18.2926 8.72905 18.4261C8.72621 18.5682 8.68075 18.6946 8.59268 18.8054C8.50462 18.9162 8.37536 19.0028 8.2049 19.0653C8.03445 19.1278 7.8228 19.1591 7.56996 19.1591C7.26882 19.1591 7.00888 19.1122 6.79013 19.0185C6.57422 18.9247 6.40661 18.7869 6.28729 18.6051C6.16797 18.4233 6.10121 18.1989 6.087 17.9318H3.837C3.83984 18.6619 3.99609 19.2614 4.30575 19.7301C4.61825 20.196 5.05575 20.5412 5.61825 20.7656C6.18359 20.9901 6.84553 21.1023 7.60405 21.1023C8.34268 21.1023 8.97479 20.9986 9.50035 20.7912C10.0288 20.5838 10.435 20.2812 10.7191 19.8835C11.0032 19.4858 11.1467 19 11.1495 18.4261C11.1467 18.0938 11.0927 17.7869 10.9876 17.5057C10.8853 17.2244 10.7248 16.9716 10.506 16.7472C10.2873 16.5199 10.006 16.3224 9.66229 16.1548C9.31854 15.9872 8.90518 15.8523 8.42223 15.75L7.70632 15.5966C7.49893 15.554 7.31996 15.5057 7.16939 15.4517C7.01882 15.3977 6.89524 15.3381 6.79865 15.2727C6.70206 15.2045 6.63104 15.1293 6.58558 15.0469C6.54297 14.9616 6.5245 14.8665 6.53018 14.7614C6.53303 14.6335 6.57138 14.5199 6.64524 14.4205C6.71911 14.321 6.83274 14.2429 6.98615 14.1861C7.1424 14.1264 7.34268 14.0966 7.587 14.0966C7.97053 14.0966 8.25604 14.1761 8.44354 14.3352ZM12.0508 12.2727V21H18.3235V19.0909H14.4201V17.5909H18.0167V15.6818H14.4201V14.1818H18.3406V12.2727H12.0508ZM27.4034 19.0952C27.7812 18.4276 27.9702 17.608 27.9702 16.6364C27.9702 15.6648 27.7812 14.8466 27.4034 14.1818C27.0256 13.5142 26.5156 13.0099 25.8736 12.669C25.2315 12.3253 24.5156 12.1534 23.7259 12.1534C22.9304 12.1534 22.2116 12.3253 21.5696 12.669C20.9304 13.0099 20.4219 13.5142 20.044 14.1818C19.669 14.8466 19.4815 15.6648 19.4815 16.6364C19.4815 17.6023 19.669 18.419 20.044 19.0866C20.4219 19.7514 20.9304 20.2571 21.5696 20.6037C22.2116 20.9474 22.9304 21.1193 23.7259 21.1193C24.5156 21.1193 25.2315 20.9489 25.8736 20.608C26.5156 20.2642 27.0256 19.7599 27.4034 19.0952ZM25.3239 15.3153C25.4631 15.6733 25.5327 16.1136 25.5327 16.6364C25.5327 17.1591 25.4631 17.6009 25.3239 17.9616C25.1875 18.3196 24.9844 18.5923 24.7145 18.7798C24.4474 18.9645 24.1179 19.0568 23.7259 19.0568C23.3338 19.0568 23.0028 18.9645 22.733 18.7798C22.4659 18.5923 22.2628 18.3196 22.1236 17.9616C21.9872 17.6009 21.919 17.1591 21.919 16.6364C21.919 16.1136 21.9872 15.6733 22.1236 15.3153C22.2628 14.9545 22.4659 14.6818 22.733 14.4972C23.0028 14.3097 23.3338 14.2159 23.7259 14.2159C24.1179 14.2159 24.4474 14.3097 24.7145 14.4972C24.9844 14.6818 25.1875 14.9545 25.3239 15.3153Z" fill="#DCD7BA"/>
</g>
<defs>
<clipPath id="clip0_377_50">
<rect width="32" height="32" fill="white"/>
</clipPath>
</defs>
</svg>
