<svg viewBox="0 0 32 32" fill="none" xmlns="http://www.w3.org/2000/svg">
<path d="M29.0105 5.02993L23.2445 2.25393C22.9189 2.09692 22.5525 2.04511 22.1961 2.10568C21.8397 2.16624 21.511 2.33618 21.2555 2.59193L2.38052 19.7999C2.15151 20.0077 2.01442 20.298 1.99942 20.6069C1.98442 20.9157 2.09273 21.2179 2.30052 21.4469C2.32552 21.4739 2.35052 21.4999 2.37752 21.5239L3.91852 22.9239C4.11988 23.1072 4.37907 23.2141 4.65108 23.2262C4.92309 23.2383 5.19073 23.1547 5.40752 22.9899L28.1425 5.74993C28.3142 5.61962 28.5189 5.53983 28.7335 5.51954C28.9482 5.49926 29.1642 5.53928 29.3573 5.6351C29.5504 5.73092 29.7129 5.87874 29.8265 6.06192C29.9402 6.2451 30.0004 6.45636 30.0005 6.67193V6.60493C30.0005 6.27583 29.9076 5.95342 29.7324 5.67479C29.5573 5.39616 29.3071 5.17264 29.0105 5.02993Z" fill="#A7A391"/>
<path d="M29.0105 26.9701L23.2445 29.7471C22.9188 29.9037 22.5525 29.9553 22.1962 29.8947C21.8399 29.8342 21.5112 29.6645 21.2555 29.4091L2.38052 12.2001C2.15151 11.9923 2.01442 11.7021 1.99942 11.3932C1.98442 11.0843 2.09273 10.7822 2.30052 10.5531C2.32552 10.5261 2.35052 10.5001 2.37752 10.4761L3.91852 9.07614C4.12008 8.89211 4.37987 8.78469 4.65255 8.77262C4.92523 8.76056 5.19349 8.84462 5.41052 9.01014L28.1425 26.2501C28.3142 26.3805 28.5189 26.4602 28.7335 26.4805C28.9482 26.5008 29.1642 26.4608 29.3573 26.365C29.5504 26.2692 29.7129 26.1213 29.8265 25.9382C29.9402 25.755 30.0004 25.5437 30.0005 25.3281V25.4001C29.9994 25.7284 29.906 26.0497 29.731 26.3273C29.5559 26.6049 29.3062 26.8277 29.0105 26.9701Z" fill="#B8B39B"/>
<path d="M23.245 29.7472C22.9192 29.9037 22.5529 29.9553 22.1967 29.8948C21.8404 29.8342 21.5117 29.6645 21.256 29.4092C21.3996 29.5509 21.5818 29.6471 21.7798 29.6857C21.9779 29.7243 22.1829 29.7036 22.3692 29.6262C22.5556 29.5488 22.7149 29.4181 22.8273 29.2505C22.9396 29.083 23.0001 28.8859 23.001 28.6842V3.31618C23.0011 3.11347 22.9411 2.91527 22.8286 2.74669C22.716 2.57811 22.5559 2.44673 22.3686 2.3692C22.1813 2.29166 21.9752 2.27147 21.7764 2.31116C21.5776 2.35086 21.3951 2.44866 21.252 2.59218C21.5075 2.33653 21.8361 2.16658 22.1925 2.10585C22.5488 2.04512 22.9152 2.0966 23.241 2.25318L29.006 5.02518C29.3034 5.16718 29.5547 5.3904 29.7308 5.66909C29.9068 5.94777 30.0005 6.27055 30.001 6.60018V25.4002C30.001 25.7296 29.908 26.0523 29.7327 26.3311C29.5574 26.6099 29.3068 26.8335 29.01 26.9762L23.245 29.7472Z" fill="#DCD7BA"/>
</svg>
