<svg viewBox="0 0 500 500" fill="none" xmlns="http://www.w3.org/2000/svg">
<g clip-path="url(#clip0_367_29)">
<path d="M0 214.286C0 95.939 95.939 0 214.286 0V0C220.203 0 225 4.79695 225 10.7143V200C225 213.807 213.807 225 200 225H10.7143C4.79695 225 0 220.203 0 214.286V214.286Z" fill="#E6C384"/>
<path d="M275 10.7143C275 4.79695 279.797 0 285.714 0V0C404.061 0 500 95.939 500 214.286V214.286C500 220.203 495.203 225 489.286 225H300C286.193 225 275 213.807 275 200V10.7143Z" fill="#7E9CD8"/>
<path d="M0 285.714C0 279.797 4.79695 275 10.7143 275H200C213.807 275 225 286.193 225 300V489.286C225 495.203 220.203 500 214.286 500V500C95.939 500 0 404.061 0 285.714V285.714Z" fill="#957FB8"/>
<path d="M275 300C275 286.193 286.193 275 300 275H489.286C495.203 275 500 279.797 500 285.714V285.714C500 404.061 404.061 500 285.714 500V500C279.797 500 275 495.203 275 489.286V300Z" fill="#DCD7BA"/>
</g>
<defs>
<clipPath id="clip0_367_29">
<rect width="500" height="500" fill="white"/>
</clipPath>
</defs>
</svg>
